<svg width="88" height="88" viewBox="0 0 88 88" fill="none" xmlns="http://www.w3.org/2000/svg">
<path d="M23.04 17.16L15.84 10L10.2 15.64L17.36 22.8L23.04 17.16ZM12 39.8H0V47.8H12V39.8ZM48 0H40V11.8H48V0ZM77.8 15.64L72.16 10L65 17.16L70.64 22.8L77.8 15.64ZM64.96 70.44L72.12 77.64L77.76 72L70.56 64.84L64.96 70.44ZM76 39.8V47.8H88V39.8H76ZM44 19.8C30.76 19.8 20 30.56 20 43.8C20 57.04 30.76 67.8 44 67.8C57.24 67.8 68 57.04 68 43.8C68 30.56 57.24 19.8 44 19.8ZM40 87.6H48V75.8H40V87.6ZM10.2 71.96L15.84 77.6L23 70.4L17.36 64.76L10.2 71.96Z" fill="#DED5E5"/>
</svg>
